<svg viewBox="0 0 51 41" fill="none" xmlns="http://www.w3.org/2000/svg">
  <path
    d="M33.1808 3.61684L33.8857 3.39912V2.66138V1.56296H34.0632V2.66138V3.39912L34.7681 3.61684C35.471 3.83395 35.968 4.00159 36.3701 4.30193L37.0733 4.82726L37.6853 4.19808L38.6337 3.22317L38.7405 3.32336L37.8174 4.2723L37.1752 4.93243L37.7804 5.62666C37.8409 5.69608 37.9427 5.87174 38.0539 6.17723C38.1577 6.46239 38.2425 6.78363 38.3069 7.07435L38.4804 7.85821H39.2832H40.5958V7.95663H39.2832H38.4804L38.3069 8.74049C38.1833 9.29862 37.9877 9.74025 37.7804 9.97813L37.1752 10.6724L37.8174 11.3325L38.7405 12.2814L38.5874 12.4251L37.6372 11.5705L37.1865 11.1651L36.6186 11.3773C36.3322 11.4842 36.0146 11.5923 35.6761 11.7022C37.1771 11.0523 38.2407 9.57879 38.2407 7.90742C38.2407 5.40113 36.2619 3.75979 33.9744 3.75979C31.6869 3.75979 29.7081 5.40113 29.7081 7.90742C29.7081 9.57879 30.7718 11.0523 32.2728 11.7022C31.9343 11.5923 31.6167 11.4842 31.3302 11.3773L30.7624 11.1651L30.3116 11.5705L29.3615 12.4251L29.2084 12.2814L30.1315 11.3325L30.7737 10.6724L30.1685 9.97813C29.9612 9.74025 29.7655 9.29862 29.642 8.74049L29.4685 7.95663H28.6656H27.3531V7.85821H28.6656H29.4685L29.642 7.07435C29.7063 6.78363 29.7911 6.46239 29.8949 6.17723C30.0061 5.87174 30.108 5.69608 30.1685 5.62666L30.7737 4.93243L30.1315 4.2723L29.2084 3.32336L29.3152 3.22317L30.2635 4.19808L30.8756 4.82726L31.5788 4.30193C31.9809 4.00159 32.4779 3.83395 33.1808 3.61684ZM33.9744 12.055C34.268 12.055 34.5553 12.025 34.8333 11.9681C34.8116 11.9748 34.7898 11.9815 34.7681 11.9882L34.0632 12.2059V12.9437V14.2519H33.8857V12.9437V12.2059L33.1808 11.9882C33.159 11.9815 33.1373 11.9748 33.1156 11.9681C33.3935 12.025 33.6808 12.055 33.9744 12.055Z"
    fill="black" stroke="black" stroke-width="2" />
  <path
    d="M44.9596 13.1044L44.3493 14.0993L43.9042 14.8249L44.5495 15.3801C45.0044 15.7716 45.3998 16.1623 45.7549 16.5533L46.322 17.1779L46.3892 17.1351L46.6349 17.8751C46.8414 18.4969 47.0097 19.0772 47.0797 19.4322L47.2388 20.2388H48.0608H49.3059V20.3372H48.0608H47.1837L47.0694 21.2069C46.9979 21.7507 46.8388 22.269 46.6889 22.5699L46.2547 23.4415L47.1144 23.8987L48.1737 24.462L48.0843 24.6169L46.9648 24.0215L46.2778 23.6562L45.7549 24.2322C45.3998 24.6232 45.0044 25.014 44.5495 25.4054L43.9042 25.9606L44.3493 26.6863L44.9596 27.6812L44.8071 27.765L44.1493 26.6905L43.7124 25.9769L42.9329 26.281C42.3812 26.4963 41.9709 26.6325 41.5958 26.6325H40.5958V27.6325V28.7309H40.4182V27.6325V26.6325H39.4182C39.0431 26.6325 38.6328 26.4963 38.0811 26.281L37.3016 25.9769L36.8647 26.6905L36.2069 27.765L36.0544 27.6812L36.6647 26.6863L37.1098 25.9606L36.4645 25.4054C36.0096 25.014 35.6142 24.6232 35.2591 24.2322L34.7362 23.6562L34.0492 24.0215L32.9297 24.6169L32.8403 24.462L33.8996 23.8987L34.7593 23.4415L34.3251 22.5699C34.1752 22.269 34.0161 21.7507 33.9446 21.2069L33.8303 20.3372H32.9532H31.7081V20.2388H32.9532H33.7752L33.9343 19.4322C34.0043 19.0772 34.1726 18.4969 34.3791 17.8751L34.6248 17.1351L34.692 17.1779L35.2591 16.5533C35.6142 16.1623 36.0096 15.7716 36.4645 15.3801L37.1098 14.8249L36.6647 14.0993L36.0544 13.1044L36.2069 13.0205L36.8647 14.0951L37.3016 14.8086L38.0811 14.5045C38.5749 14.3119 38.9556 14.1826 39.2993 14.1577C36.3264 14.7335 34.0632 17.3771 34.0632 20.288C34.0632 23.8175 36.9878 26.534 40.507 26.534C44.0262 26.534 46.9508 23.8175 46.9508 20.288C46.9508 17.3771 44.6876 14.7335 41.7147 14.1577C42.0584 14.1826 42.4391 14.3119 42.9329 14.5045L43.7124 14.8086L44.1493 14.0951L44.8071 13.0205L44.9596 13.1044ZM40.5958 13.1533V14.0426C40.5662 14.0422 40.5366 14.042 40.507 14.042C40.4774 14.042 40.4478 14.0422 40.4182 14.0426V13.1533V11.8451H40.5958V13.1533ZM32.8403 16.1137L32.8898 16.0279L33.9449 16.7011L33.8996 16.6771L32.8403 16.1137ZM48.1242 16.0279L48.1737 16.1137L47.1144 16.6771L47.0691 16.7011L48.1242 16.0279Z"
    fill="black" stroke="black" stroke-width="2" />
  <path
    d="M30.4358 22.3374H34.0631V24.744H30.5033H29.6978L29.5263 25.5311C29.4008 26.1067 29.1642 26.9046 28.8794 27.7238L28.5961 28.5388L29.3608 28.9385L32.4154 30.5348L31.2413 32.3986L28.116 30.7365L27.3895 30.3501L26.8704 30.9886C26.6586 31.2492 26.4308 31.4743 26.1599 31.7257C26.0918 31.7888 26.0188 31.8555 25.9423 31.9255C25.7269 32.1224 25.483 32.3454 25.2376 32.59L24.6859 33.14L25.0842 33.8095L26.8068 36.705L24.7977 37.8313L22.9856 34.8742L22.5926 34.2329L21.8675 34.4325C21.106 34.6422 20.3422 34.8514 19.5618 35.0603L18.8204 35.2588V36.0263V39.4329H16.4653V36.0263V35.2488L15.7118 35.0571C15.5329 35.0116 15.3541 34.9663 15.1758 34.9212C14.5256 34.7565 13.883 34.5937 13.2743 34.4307L12.5429 34.2349L12.156 34.8857L10.405 37.8312L8.35923 36.7047L10.1257 33.8205L10.5309 33.1589L9.99071 32.602C9.72224 32.3252 9.45582 32.0813 9.22217 31.8674C9.16821 31.818 9.116 31.7702 9.06591 31.724C8.7897 31.469 8.5581 31.2442 8.34397 30.984L7.82437 30.3526L7.10235 30.7364L3.98761 32.3925L2.85397 30.5354L5.86373 28.9352L6.61551 28.5354L6.34079 27.7295C6.06213 26.9121 5.89251 26.3429 5.76898 25.5834L5.63244 24.744H4.78196H1.15468L1.15463 22.5472H4.71391H5.56243L5.70057 21.7099C5.82703 20.9435 6.05348 20.1937 6.3013 19.6602L6.68462 18.8351L5.89926 18.3758L2.83208 16.5818L3.98772 14.6886L7.10246 16.3446L7.82985 16.7314L8.34868 16.0915C8.55941 15.8316 8.78681 15.6069 9.05789 15.3554C9.12472 15.2934 9.19618 15.228 9.2711 15.1595C9.48766 14.9614 9.7332 14.7369 9.9801 14.49L10.5299 13.9402L10.1326 13.2718L8.41126 10.3765L10.4201 9.25023L12.2309 12.2067L12.6237 12.848L13.3487 12.6487C14.1351 12.4325 14.7707 12.2649 15.3975 12.2649H16.3975V11.2649V7.81192L18.8049 7.69773L18.7526 11.2501L18.7376 12.2649H19.7525C20.43 12.2649 21.1522 12.4385 21.944 12.6504L22.6754 12.8462L23.0622 12.1954L24.8129 9.25014L26.8799 10.3884L25.0788 13.4908L24.6131 14.2929L25.378 14.8176C25.6201 14.9836 25.8712 15.2033 26.1522 15.4625C26.2048 15.511 26.2596 15.5619 26.3159 15.6144C26.538 15.821 26.784 16.0501 27.0171 16.2388L27.5315 16.6554L28.116 16.3446L31.2296 14.6887L32.3852 16.5819L29.319 18.3758L28.5412 18.8309L28.9131 19.6517C29.1471 20.1682 29.3173 20.9013 29.4588 21.5503L29.6303 22.3374H30.4358ZM25.1756 23.6456C25.1756 19.4822 21.7586 16.3503 17.643 16.3503C13.5275 16.3503 10.1104 19.4822 10.1104 23.6456C10.1104 27.5778 13.5055 30.9408 17.643 30.9408C21.7807 30.9408 25.1756 27.5778 25.1756 23.6456Z"
    fill="black" stroke="black" stroke-width="2" />
</svg>
