<svg viewBox="0 0 40 40" fill="none" xmlns="http://www.w3.org/2000/svg">
  <path
    d="M15.5766 10.0304C15.5766 6.16258 17.5834 2.77825 20.5936 0.36087H18.0851C8.30193 0.36087 0.525543 2.53651 0.525543 5.19563C0.525543 7.613 7.04767 9.5469 15.5766 10.0304ZM25.1089 21.6338C22.8513 21.8755 20.3428 22.1173 18.0851 22.1173C8.30193 22.1173 0.525543 19.9416 0.525543 17.2825V24.5346C0.525543 27.1938 8.30193 29.3694 18.0851 29.3694C27.8683 29.3694 35.6447 27.1938 35.6447 24.5346V19.6999C33.387 21.3921 30.8785 22.1173 28.1192 22.1173C27.1158 22.1173 26.1124 21.8755 25.1089 21.6338ZM18.0851 31.7868C8.30193 31.7868 0.525543 29.6111 0.525543 26.952V34.2042C0.525543 36.8633 8.30193 39.0389 18.0851 39.0389C27.8683 39.0389 35.6447 36.8633 35.6447 34.2042V26.952C35.6447 29.6111 27.8683 31.7868 18.0851 31.7868ZM18.0851 19.6999H20.5936C18.0851 18.0077 16.3292 15.3486 15.8275 12.4478C7.29852 12.206 0.525543 10.0304 0.525543 7.613V14.8651C0.525543 17.5243 8.30193 19.6999 18.0851 19.6999ZM28.1192 19.6999C33.6379 19.6999 38.1532 15.3486 38.1532 10.0304C38.1532 4.71215 33.6379 0.36087 28.1192 0.36087C22.6004 0.36087 18.0851 4.71215 18.0851 10.0304C18.0851 15.3486 22.6004 19.6999 28.1192 19.6999ZM22.3496 9.06343L26.6141 13.173L33.8887 6.16258L35.6447 7.85474L26.6141 16.5573L20.5936 10.7556L22.3496 9.06343Z"
    fill="black" />
</svg>
