<svg viewBox="0 0 50 36" fill="none" xmlns="http://www.w3.org/2000/svg">
  <path
    d="M10.37 0.21759H14.4638V4.16262H10.37V14.0252C10.37 15.0715 9.93872 16.0749 9.17099 16.8147C8.40327 17.5546 7.36201 17.9702 6.27628 17.9702C7.36201 17.9702 8.40327 18.3858 9.17099 19.1257C9.93872 19.8655 10.37 20.8689 10.37 21.9152V31.7778H14.4638V35.7228H10.37C8.17987 35.1902 6.27628 33.9476 6.27628 31.7778V23.8877C6.27628 22.8415 5.84497 21.838 5.07724 21.0982C4.30952 20.3584 3.26826 19.9427 2.18253 19.9427H0.135651V15.9977H2.18253C3.26826 15.9977 4.30952 15.5821 5.07724 14.8422C5.84497 14.1024 6.27628 13.099 6.27628 12.0527V4.16262C6.27628 3.11633 6.70758 2.1129 7.47531 1.37306C8.24303 0.633226 9.2843 0.21759 10.37 0.21759ZM39.0263 0.21759C40.112 0.21759 41.1533 0.633226 41.921 1.37306C42.6887 2.1129 43.12 3.11633 43.12 4.16262V12.0527C43.12 13.099 43.5513 14.1024 44.3191 14.8422C45.0868 15.5821 46.128 15.9977 47.2138 15.9977H49.2607V19.9427H47.2138C46.128 19.9427 45.0868 20.3584 44.3191 21.0982C43.5513 21.838 43.12 22.8415 43.12 23.8877V31.7778C43.12 32.8241 42.6887 33.8275 41.921 34.5673C41.1533 35.3072 40.112 35.7228 39.0263 35.7228H34.9325V31.7778H39.0263V21.9152C39.0263 20.8689 39.4576 19.8655 40.2253 19.1257C40.993 18.3858 42.0343 17.9702 43.12 17.9702C42.0343 17.9702 40.993 17.5546 40.2253 16.8147C39.4576 16.0749 39.0263 15.0715 39.0263 14.0252V4.16262H34.9325V0.21759H39.0263ZM24.6982 23.8877C25.103 23.8877 25.4987 24.0034 25.8353 24.2202C26.1719 24.4369 26.4343 24.745 26.5892 25.1054C26.7441 25.4658 26.7847 25.8624 26.7057 26.2451C26.6267 26.6277 26.4318 26.9792 26.1455 27.255C25.8592 27.5309 25.4945 27.7188 25.0975 27.7949C24.7004 27.871 24.2889 27.8319 23.9148 27.6826C23.5408 27.5333 23.2211 27.2805 22.9962 26.9561C22.7713 26.6317 22.6513 26.2504 22.6513 25.8603C22.6513 25.3371 22.8669 24.8354 23.2508 24.4655C23.6347 24.0956 24.1553 23.8877 24.6982 23.8877ZM16.5107 23.8877C16.9155 23.8877 17.3112 24.0034 17.6478 24.2202C17.9844 24.4369 18.2468 24.745 18.4017 25.1054C18.5566 25.4658 18.5972 25.8624 18.5182 26.2451C18.4392 26.6277 18.2443 26.9792 17.958 27.255C17.6717 27.5309 17.307 27.7188 16.91 27.7949C16.5129 27.871 16.1014 27.8319 15.7273 27.6826C15.3533 27.5333 15.0336 27.2805 14.8087 26.9561C14.5838 26.6317 14.4638 26.2504 14.4638 25.8603C14.4638 25.3371 14.6794 24.8354 15.0633 24.4655C15.4472 24.0956 15.9678 23.8877 16.5107 23.8877ZM32.8857 23.8877C33.2905 23.8877 33.6862 24.0034 34.0228 24.2202C34.3594 24.4369 34.6218 24.745 34.7767 25.1054C34.9316 25.4658 34.9722 25.8624 34.8932 26.2451C34.8142 26.6277 34.6193 26.9792 34.333 27.255C34.0468 27.5309 33.682 27.7188 33.285 27.7949C32.8879 27.871 32.4764 27.8319 32.1023 27.6826C31.7283 27.5333 31.4086 27.2805 31.1837 26.9561C30.9588 26.6317 30.8388 26.2504 30.8388 25.8603C30.8388 25.3371 31.0544 24.8354 31.4383 24.4655C31.8222 24.0956 32.3428 23.8877 32.8857 23.8877Z"
    fill="black" />
</svg>
