<svg viewBox="0 0 78 78" fill="none" xmlns="http://www.w3.org/2000/svg">
  <g clip-path="url(#clip0_44_2)">
    <path
      d="M65.2592 62.6523C63.8503 65.2617 62.5499 67.5358 62.0466 68.4255C62.7705 67.5614 64.9435 65.2251 67.2665 62.4427C66.573 62.5268 65.9051 62.5963 65.2592 62.6523Z"
      fill="white" />
    <path
      d="M45.3022 48.8585C44.3325 48.8585 43.4025 49.2437 42.7168 49.9293C42.0311 50.615 41.6459 51.545 41.6459 52.5147C41.6459 53.4844 42.0311 54.4144 42.7168 55.1001C43.4025 55.7857 44.3325 56.171 45.3022 56.171C46.2719 56.171 47.2019 55.7857 47.8875 55.1001C48.5732 54.4144 48.9584 53.4844 48.9584 52.5147C48.9584 51.545 48.5732 50.615 47.8875 49.9293C47.2019 49.2437 46.2719 48.8585 45.3022 48.8585Z"
      fill="white" />
    <path
      d="M32.7186 48.8585C31.7489 48.8585 30.8189 49.2437 30.1332 49.9293C29.4475 50.615 29.0623 51.545 29.0623 52.5147C29.0623 53.4844 29.4475 54.4144 30.1332 55.1001C30.8189 55.7857 31.7489 56.171 32.7186 56.171C33.6883 56.171 34.6182 55.7857 35.3039 55.1001C35.9896 54.4144 36.3748 53.4844 36.3748 52.5147C36.3748 51.545 35.9896 50.615 35.3039 49.9293C34.6182 49.2437 33.6883 48.8585 32.7186 48.8585Z"
      fill="white" />
    <path
      d="M73.9989 59.3361C69.7686 57.4994 58.7389 58.3611 55.915 57.6371C56.1746 57.0143 56.3611 56.3696 56.5013 55.7127C59.9296 55.0156 64.322 53.7505 69.2799 51.4349C70.9532 50.6525 69.6187 54.0625 67.6419 58.0625C68.6778 58.0539 69.6918 58.0673 70.6607 58.1076C74.0427 53.43 76.217 48.8816 72.1585 48.399C69.9611 48.1382 66.7217 48.8317 63.6309 49.6385C69.0836 44.7111 76.3389 37.3193 71.0519 36.0153C68.6412 35.4218 64.6925 35.9105 61.219 36.4089C58.567 26.2238 44.5929 21.606 40.2785 20.4104V-10.5H37.7203V20.4116C33.406 21.606 19.4318 26.2251 16.781 36.4102C13.3063 35.9117 9.35757 35.4217 6.9481 36.0165C1.66239 37.3193 8.91639 44.7123 14.3691 49.6397C11.2783 48.8341 8.03767 48.1406 5.84148 48.4002C1.78182 48.8828 3.95607 53.4312 7.3381 58.1088C8.34345 58.0689 9.34964 58.0539 10.3557 58.0637C8.37892 54.0638 7.04439 50.6537 8.71773 51.4361C13.6768 53.7505 18.068 55.0168 21.4975 55.7139C21.6377 56.3708 21.8254 57.0156 22.0838 57.6383C19.2599 58.3623 8.23023 57.5006 3.99995 59.3373C-3.26502 62.4914 16.9882 73.6673 19.9339 75.5625C17.5963 73.3895 3.94145 60.8632 7.70007 61.4116C15.1442 62.4975 20.9784 62.0246 24.5895 61.4323C25.0843 61.9612 25.6254 62.4609 26.2104 62.9289C23.7449 63.5798 19.8157 64.361 18.0875 65.6333C14.1631 68.5254 28.0776 72.5412 30.1385 73.2883C28.403 72.2889 18.28 66.5633 20.6334 66.3853C24.1374 66.1221 26.9624 65.4481 29.0416 64.7705C31.8825 66.2488 35.3084 67.1141 39 67.1141C42.5417 67.1141 45.8335 66.3098 48.6038 64.9399C50.711 65.6577 53.6567 66.3963 57.369 66.6766C59.7188 66.8533 49.5995 72.5778 47.8603 73.5772C49.9224 72.8301 63.8333 68.8143 59.9138 65.9222C58.1185 64.6023 53.9638 63.8138 51.5263 63.1483C52.2001 62.6295 52.8303 62.0564 53.4105 61.4348C57.0217 62.0271 62.8558 62.4999 70.2987 61.414C74.0574 60.8668 60.4037 73.3919 58.0649 75.5649C61.0106 73.6673 81.2663 62.4914 73.9989 59.3361ZM21.4634 51.4629C20.2081 51.2411 18.4068 50.7353 16.4032 50.1857C12.7944 45.2924 7.49654 37.7264 10.0681 38.5564C12.1333 39.2238 14.234 39.7759 16.3605 40.2102C16.4982 43.8689 18.6603 46.9536 22.1459 49.2314C21.84 49.949 21.6112 50.697 21.4634 51.4629ZM28.7698 27.846C28.7698 27.846 33.3487 24.1349 39 24.1349C44.6514 24.1349 49.2314 27.846 49.2314 27.846C49.2314 27.846 45.7519 26.977 41.1182 26.754C45.7507 27.5864 49.229 30.8222 49.229 30.8222C49.229 30.8222 44.6489 29.3378 39 29.3378C33.3487 29.3378 28.7686 30.821 28.7686 30.821C28.7686 30.821 32.2481 27.5852 36.8818 26.7528C32.2494 26.977 28.7698 27.846 28.7698 27.846ZM27.2244 52.5147C27.2244 51.0602 27.8023 49.6652 28.8308 48.6367C29.8593 47.6082 31.2543 47.0303 32.7088 47.0303C34.1634 47.0303 35.5583 47.6082 36.5869 48.6367C37.6154 49.6652 38.1932 51.0602 38.1932 52.5147C38.1932 53.9693 37.6154 55.3642 36.5869 56.3928C35.5583 57.4213 34.1634 57.9991 32.7088 57.9991C31.2543 57.9991 29.8593 57.4213 28.8308 56.3928C27.8023 55.3642 27.2244 53.9693 27.2244 52.5147ZM39 62.4061C37.0378 62.4061 35.4486 61.464 35.4486 60.3025C35.4486 59.1447 37.0378 60.0697 39 60.0697C40.961 60.0697 42.5515 59.1447 42.5515 60.3025C42.5515 61.464 40.961 62.4061 39 62.4061ZM45.2912 57.9991C43.8367 57.9991 42.4417 57.4213 41.4132 56.3928C40.3846 55.3642 39.8068 53.9693 39.8068 52.5147C39.8068 51.0602 40.3846 49.6652 41.4132 48.6367C42.4417 47.6082 43.8367 47.0303 45.2912 47.0303C46.7457 47.0303 48.1407 47.6082 49.1692 48.6367C50.1978 49.6652 50.7756 51.0602 50.7756 52.5147C50.7756 53.9693 50.1978 55.3642 49.1692 56.3928C48.1407 57.4213 46.7457 57.9991 45.2912 57.9991ZM61.6395 40.2102C63.7659 39.7754 65.8665 39.2232 67.9319 38.5564C70.5023 37.7264 65.2056 45.2924 61.5969 50.1857C59.592 50.7353 57.7919 51.2411 56.5366 51.4629C56.3888 50.6974 56.16 49.9498 55.8541 49.2326C59.3397 46.9536 61.5018 43.8689 61.6395 40.2102Z"
      fill="white" fill-opacity="0.98" />
    <path
      d="M15.9534 68.4267C15.4501 67.537 14.1509 65.2616 12.7396 62.6535C12.0698 62.5943 11.401 62.5245 10.7335 62.4438C13.0565 65.2263 15.2295 67.5626 15.9534 68.4267Z"
      fill="white" />
  </g>
  <defs>
    <clipPath id="clip0_44_2">
      <rect width="78" height="78" fill="white" />
    </clipPath>
  </defs>
</svg>
