<svg viewBox="0 0 327 269" fill="none" xmlns="http://www.w3.org/2000/svg">
  <g filter="url(#filter0_d_35_168)">
    <path
      d="M78.3205 21.8043C84.9247 3.86647 36.6918 8.10199 1 1H143.848H199.699H250.519H327V72.1475V121.031V147.651V258C323.998 217.977 307.976 193.935 291.997 195.133C286.074 179.226 286.662 168.866 261.085 180.548C257.653 156.819 266.168 120.489 219.901 152.886C220.889 137.801 226.642 124.972 186.114 128.291C203.921 71.2898 155.813 101.698 160.955 96.8313C158.24 79.2674 164.095 60.5456 136.311 55.2076C154.776 43.2114 116.083 23.6245 83.4875 21.9204L78.3205 21.8043Z"
      fill="white" fill-opacity="0.52" />
    <path
      d="M327 1C302.946 1 276.824 1 250.519 1M327 1C327 1 282.84 7.65217 254.544 11.9146M327 1L261.085 21.8043M327 1L269.69 34.0762M327 1L278.696 43.2938M327 1L288.857 55.2076M327 1L301.574 61.9836M327 1L315.005 68.2755M327 1V72.1475M160.955 96.8313C158.24 79.2674 164.095 60.5456 136.311 55.2076M160.955 96.8313C155.813 101.698 203.921 71.2898 186.114 128.291M160.955 96.8313L195.674 76.7938M78.3205 21.8043C84.9247 3.86647 36.6918 8.10199 1 1C17.6264 1 119.606 1 143.848 1M78.3205 21.8043C111.781 21.5081 155.764 42.5699 136.311 55.2076M78.3205 21.8043L174.541 23.9661M136.311 55.2076L186.114 45.4672M186.114 128.291C226.642 124.972 220.889 137.801 219.901 152.886M186.114 128.291L212.278 101.448M219.901 152.886C266.168 120.489 257.653 156.819 261.085 180.548M219.901 152.886L237.431 128.291M261.085 180.548C286.662 168.866 286.074 179.226 291.997 195.133M261.085 180.548L269.69 138.455M291.997 195.133C307.976 193.935 323.998 217.977 327 258V147.651M291.997 195.133L300.853 147.651M143.848 1C177.708 6.3896 185.396 11.26 174.541 23.9661M143.848 1C161.325 1 180.214 1 199.699 1M174.541 23.9661C194.735 29.1506 196.675 33.9792 186.114 45.4672M174.541 23.9661L209.259 18.7362M186.114 45.4672C201.941 54.1112 207.939 59.8111 195.674 76.7938M186.114 45.4672L228.54 32.0762M195.674 76.7938C217.137 77.0318 228.238 77.7501 212.278 101.448M195.674 76.7938L244.984 48.3349M212.278 101.448C235.201 100.53 242.7 104.674 237.431 128.291M212.278 101.448L257.351 61.9836M237.431 128.291C258.633 119.036 266.769 119.611 269.69 138.455M237.431 128.291L273.668 76.7938M269.69 138.455C288.104 128.724 294.495 131.661 300.853 147.651M269.69 138.455L285.119 101.448M300.853 147.651C317.777 133.122 321.484 137.489 327 147.651M300.853 147.651L306.548 115.707M327 147.651V121.031M199.699 1C212.437 7.03812 213.493 11.0236 209.259 18.7362M199.699 1C216.374 1 233.485 1 250.519 1M209.259 18.7362C225.57 19.7322 228.083 23.4729 228.54 32.0762M209.259 18.7362C209.259 18.7362 236.859 14.5786 254.544 11.9146M228.54 32.0762C240.233 33.3348 245.335 35.4448 244.984 48.3349M228.54 32.0762L261.085 21.8043M244.984 48.3349C261.609 48.7081 262.773 52.3452 257.351 61.9836M244.984 48.3349L269.69 34.0762M257.351 61.9836C276.248 56.3633 278.177 61.103 273.668 76.7938M257.351 61.9836L278.696 43.2938M273.668 76.7938C284.181 79.0988 285.471 85.9719 285.119 101.448M273.668 76.7938L288.857 55.2076M285.119 101.448C298.312 96.0365 302.75 99.7369 306.548 115.707M285.119 101.448L301.574 61.9836M306.548 115.707C316.155 110.382 320.709 111.199 327 121.031M306.548 115.707L315.005 68.2755M327 121.031V72.1475M250.519 1C262.046 4.24618 262.217 6.70809 254.544 11.9146M254.544 11.9146C264.607 16.0039 261.085 21.8043 261.085 21.8043M261.085 21.8043C275.506 21.0444 277.35 23.6721 269.69 34.0762M269.69 34.0762C282.545 33.238 284.534 35.248 278.696 43.2938M278.696 43.2938C287.793 43.5418 291.59 44.7999 288.857 55.2076M288.857 55.2076C297.881 51.946 300.994 52.9523 301.574 61.9836M301.574 61.9836C309.981 53.0777 312.809 54.8571 315.005 68.2755M315.005 68.2755C322.231 63.86 324.512 65.5129 327 72.1475"
      stroke="black" stroke-width="2" />
    <path
      d="M260.5 221C256.124 221 251.927 222.422 248.833 224.954C245.738 227.486 244 230.92 244 234.5C244 238.08 245.738 241.514 248.833 244.046C251.927 246.578 256.124 248 260.5 248C264.876 248 269.073 246.578 272.167 244.046C275.262 241.514 277 238.08 277 234.5C277 230.92 275.262 227.486 272.167 224.954C269.073 222.422 264.876 221 260.5 221Z"
      fill="white" />
    <path
      d="M260.5 195C256.124 195 251.927 196.422 248.833 198.954C245.738 201.486 244 204.92 244 208.5C244 212.08 245.738 215.514 248.833 218.046C251.927 220.578 256.124 222 260.5 222C264.876 222 269.073 220.578 272.167 218.046C275.262 215.514 277 212.08 277 208.5C277 204.92 275.262 201.486 272.167 198.954C269.073 196.422 264.876 195 260.5 195Z"
      fill="white" />
    <path
      d="M295.339 247.52C293.497 250.832 291.796 253.719 291.138 254.848C292.085 253.751 294.926 250.786 297.964 247.254C297.057 247.361 296.184 247.449 295.339 247.52Z"
      fill="black" />
    <path
      d="M269.241 230.013C267.973 230.013 266.757 230.502 265.86 231.372C264.964 232.242 264.46 233.423 264.46 234.653C264.46 235.884 264.964 237.064 265.86 237.935C266.757 238.805 267.973 239.294 269.241 239.294C270.509 239.294 271.725 238.805 272.622 237.935C273.519 237.064 274.023 235.884 274.023 234.653C274.023 233.423 273.519 232.242 272.622 231.372C271.725 230.502 270.509 230.013 269.241 230.013Z"
      fill="black" />
    <path
      d="M252.786 230.013C251.518 230.013 250.302 230.502 249.405 231.372C248.508 232.242 248.005 233.423 248.005 234.653C248.005 235.884 248.508 237.064 249.405 237.935C250.302 238.805 251.518 239.294 252.786 239.294C254.054 239.294 255.27 238.805 256.167 237.935C257.063 237.064 257.567 235.884 257.567 234.653C257.567 233.423 257.063 232.242 256.167 231.372C255.27 230.502 254.054 230.013 252.786 230.013Z"
      fill="black" />
    <path
      d="M306.768 243.311C301.236 240.98 286.812 242.074 283.12 241.155C283.459 240.364 283.703 239.546 283.886 238.712C288.369 237.827 294.113 236.222 300.597 233.283C302.785 232.29 301.04 236.618 298.455 241.695C299.809 241.684 301.135 241.701 302.402 241.752C306.825 235.815 309.668 230.042 304.361 229.43C301.488 229.098 297.251 229.979 293.21 231.003C300.34 224.749 309.828 215.367 302.914 213.712C299.762 212.958 294.598 213.579 290.056 214.211C286.588 201.284 268.314 195.423 262.672 193.906V181H259.945L259.327 193.907C253.685 195.423 235.411 201.286 231.944 214.213C227.401 213.58 222.237 212.958 219.086 213.713C212.174 215.367 221.66 224.75 228.79 231.004C224.749 229.982 220.511 229.102 217.639 229.431C212.33 230.044 215.173 235.817 219.596 241.753C220.911 241.703 222.226 241.684 223.542 241.696C220.957 236.619 219.212 232.291 221.4 233.284C227.885 236.222 233.627 237.829 238.112 238.714C238.295 239.548 238.541 240.366 238.879 241.156C235.186 242.075 220.763 240.982 215.231 243.313C205.73 247.316 232.215 261.501 236.067 263.906C233.011 261.148 215.154 245.249 220.069 245.945C229.804 247.324 237.433 246.724 242.156 245.972C242.803 246.643 243.51 247.277 244.275 247.871C241.051 248.697 235.913 249.689 233.653 251.304C228.521 254.975 246.717 260.072 249.412 261.02C247.142 259.751 233.905 252.484 236.982 252.258C241.564 251.924 245.259 251.069 247.977 250.209C251.693 252.085 256.173 253.183 261 253.183C265.631 253.183 269.936 252.162 273.559 250.424C276.314 251.335 280.166 252.272 285.021 252.628C288.094 252.852 274.861 260.118 272.587 261.386C275.283 260.438 293.474 255.341 288.349 251.67C286.001 249.995 280.568 248.994 277.381 248.15C278.262 247.491 279.086 246.764 279.845 245.975C284.567 246.727 292.196 247.327 301.929 245.949C306.844 245.254 288.989 261.151 285.931 263.909C289.783 261.501 316.271 247.316 306.768 243.311ZM238.068 233.318C236.426 233.037 234.07 232.395 231.45 231.697C226.731 225.487 219.803 215.884 223.166 216.937C225.867 217.784 228.614 218.485 231.395 219.036C231.575 223.68 234.402 227.595 238.96 230.486C238.56 231.397 238.261 232.346 238.068 233.318ZM247.622 203.343C247.622 203.343 253.61 198.633 261 198.633C268.39 198.633 274.38 203.343 274.38 203.343C274.38 203.343 269.829 202.24 263.77 201.957C269.828 203.014 274.376 207.12 274.376 207.12C274.376 207.12 268.387 205.236 261 205.236C253.61 205.236 247.62 207.119 247.62 207.119C247.62 207.119 252.171 203.012 258.23 201.955C252.172 202.24 247.622 203.343 247.622 203.343ZM245.601 234.653C245.601 232.807 246.357 231.037 247.702 229.731C249.047 228.426 250.871 227.692 252.773 227.692C254.675 227.692 256.499 228.426 257.844 229.731C259.189 231.037 259.945 232.807 259.945 234.653C259.945 236.499 259.189 238.27 257.844 239.575C256.499 240.881 254.675 241.614 252.773 241.614C250.871 241.614 249.047 240.881 247.702 239.575C246.357 238.27 245.601 236.499 245.601 234.653ZM261 247.208C258.434 247.208 256.356 246.012 256.356 244.538C256.356 243.068 258.434 244.242 261 244.242C263.564 244.242 265.644 243.068 265.644 244.538C265.644 246.012 263.564 247.208 261 247.208ZM269.227 241.614C267.325 241.614 265.501 240.881 264.156 239.575C262.811 238.27 262.055 236.499 262.055 234.653C262.055 232.807 262.811 231.037 264.156 229.731C265.501 228.426 267.325 227.692 269.227 227.692C271.129 227.692 272.953 228.426 274.298 229.731C275.643 231.037 276.399 232.807 276.399 234.653C276.399 236.499 275.643 238.27 274.298 239.575C272.953 240.881 271.129 241.614 269.227 241.614ZM290.606 219.036C293.386 218.484 296.133 217.783 298.834 216.937C302.195 215.884 295.269 225.487 290.55 231.697C287.928 232.395 285.574 233.037 283.932 233.318C283.739 232.347 283.44 231.398 283.04 230.488C287.598 227.595 290.425 223.68 290.606 219.036Z"
      fill="black" />
    <path
      d="M230.862 254.849C230.204 253.72 228.505 250.832 226.659 247.522C225.784 247.447 224.909 247.358 224.036 247.256C227.074 250.787 229.916 253.753 230.862 254.849Z"
      fill="black" />
  </g>
  <defs>
    <filter id="filter0_d_35_168" x="0.80484" y="0" width="329.195" height="269"
      filterUnits="userSpaceOnUse" color-interpolation-filters="sRGB">
      <feFlood flood-opacity="0" result="BackgroundImageFix" />
      <feColorMatrix in="SourceAlpha" type="matrix"
        values="0 0 0 0 0 0 0 0 0 0 0 0 0 0 0 0 0 0 127 0" result="hardAlpha" />
      <feOffset dx="2" dy="2" />
      <feComposite in2="hardAlpha" operator="out" />
      <feColorMatrix type="matrix" values="0 0 0 0 0 0 0 0 0 0 0 0 0 0 0 0 0 0 0.25 0" />
      <feBlend mode="normal" in2="BackgroundImageFix" result="effect1_dropShadow_35_168" />
      <feBlend mode="normal" in="SourceGraphic" in2="effect1_dropShadow_35_168" result="shape" />
    </filter>
  </defs>
</svg>
